<svg width="179" height="81" viewBox="0 0 179 81" fill="none" xmlns="http://www.w3.org/2000/svg">
  <g transform="translate(2 2)">
    <path d="M16 6L36 12L24 20L37 26L20 35L32 43L12 53L8 49L16 41L3 35L16 27L5 20L16 6Z" fill="#F15A2A"/>
    <path d="M25 10C30 10 34 14 34 19C34 24 30 28 25 28C20 28 16 24 16 19C16 14 20 10 25 10Z" fill="#FFFFFF"/>
    <path d="M19 18C22 16 27 16 31 19C28 21 24 22 20 21L19 18Z" fill="#F15A2A"/>
  </g>
  <text x="50" y="22" fill="#0B2A56" font-size="20" font-family="Arial, Helvetica, sans-serif" font-weight="700">TIGER'S</text>
  <text x="50" y="43" fill="#0B2A56" font-size="20" font-family="Arial, Helvetica, sans-serif" font-weight="700">MARK</text>
  <text x="50" y="66" fill="#0B2A56" font-size="20" font-family="Arial, Helvetica, sans-serif" font-weight="700">CORPORATION</text>
</svg>
