<svg width="147" height="77" viewBox="0 0 147 77" fill="none" xmlns="http://www.w3.org/2000/svg">
  <path d="M10.8 6.8L31.8 13.4L18.5 22.3L32.9 29.1L14.1 39.1L27.3 46.8L5.2 58L0.8 53.6L10.8 43.6L-3.5 37L10.8 28.2L-1.2 20.4L10.8 6.8Z" fill="#F15A2A" transform="translate(4 8) scale(0.68)"/>
  <path d="M74 32C86 32 96 42 96 54C96 67 86 76 74 76C62 76 52 67 52 54C52 42 62 32 74 32Z" fill="#FFFFFF" transform="translate(-18 -9) scale(0.47)"/>
  <path d="M60 52C66 48 76 48 84 54C78 58 70 60 62 58L60 52Z" fill="#F15A2A" transform="translate(-18 -9) scale(0.47)"/>
  <text x="44" y="22" fill="#0B2A56" font-size="13" font-family="Arial, Helvetica, sans-serif" font-weight="700" letter-spacing="0.2">TIGER'S</text>
  <text x="44" y="39" fill="#0B2A56" font-size="13" font-family="Arial, Helvetica, sans-serif" font-weight="700" letter-spacing="0.2">MARK</text>
  <text x="44" y="56" fill="#0B2A56" font-size="13" font-family="Arial, Helvetica, sans-serif" font-weight="700" letter-spacing="0.2">CORPORATION</text>
</svg>
